<svg xmlns="http://www.w3.org/2000/svg" xmlns:xlink="http://www.w3.org/1999/xlink" viewBox="0 0 971.4 662"><defs><linearGradient id="a" x1="979.4" x2="979.4" y1="738.6" y2="646.8" gradientUnits="userSpaceOnUse"><stop offset="0" stop-color="gray" stop-opacity=".3"/><stop offset=".5" stop-color="gray" stop-opacity=".1"/><stop offset="1" stop-color="gray" stop-opacity=".1"/></linearGradient><linearGradient id="c" x1="600.7" x2="600.7" y1="650.1" y2="119" xlink:href="#a"/><linearGradient id="e" x1="485.7" x2="485.7" y1="615.6" y2="377.7" xlink:href="#a"/><path id="b" d="M893 547a19 19 0 0 0-14 33 19 19 0 0 0 33-14c0-11-8-19-19-19zm0 31a12 12 0 1 1 0-24 12 12 0 0 1 0 24z"/><path id="d" d="M411 91s45 91 172 38l-30-46-52-19z"/></defs><path fill="#3f3d56" d="M146 538c-7 26-32 43-32 43s-13-26-6-53 32-43 32-43 13 26 6 53z"/><g fill="#6c63ff"><path d="M135 532c-19 20-22 49-22 49s30-2 50-21 21-49 21-49-29 2-49 21z"/><rect width="106.9" height="45.5" x="68.1" y="573.2" rx="15.2"/></g><path fill="url(#a)" d="M1010 663v-16h-82v76a16 16 0 0 0 16 16h50a16 16 0 0 0 16-16v-17a21 21 0 0 0 0-43Zm0 35v-27a13 13 0 0 1 0 27Z" transform="translate(-114 -119)" opacity=".7"/><use xlink:href="#b" fill="#6c63ff"/><use xlink:href="#b" opacity=".1"/><path fill="#6c63ff" d="M818 532h75v74a10 10 0 0 1-10 10h-55a10 10 0 0 1-10-10v-74z"/><path fill="#e0e0e0" d="M0 616h971v33H0z"/><path fill="url(#c)" d="M753 514c-10-38-69-65-114-71v-33h1v-2a111 111 0 0 0 67-70 120 120 0 0 0 7-15c4-2 8-10 8-19a33 33 0 0 0-1-10 122 122 0 0 0 1-14 120 120 0 0 0-40-90 23 23 0 0 0 0-5c-1-16-17-27-33-27a33 33 0 0 0 6-35c-10 15-31 16-48 16 7-3 11-13 6-20-18 25-54 29-75 51-5 4-9 10-12 16a120 120 0 0 0-45 94v14l-1 10c0 9 4 17 8 19l8 15a111 111 0 0 0 66 70v35c-44 6-104 34-114 72l-23 90a383 383 0 0 0 352 4c-5-23-14-61-24-95z" transform="translate(-114 -119)" opacity=".7"/><path fill="#6c63ff" d="M489 522c49 0 129-15 167-40-4-22-13-59-22-91-12-42-84-71-127-71h-41c-44 0-116 29-127 71l-22 87c39 28 121 44 172 44z"/><circle cx="486.8" cy="164.5" r="116.2" fill="#72351c"/><path d="M449 261h75v60a37 37 0 0 1-37 37 37 37 0 0 1-38-37v-60z" opacity=".1"/><path fill="#fda57d" d="M460 259h53a11 11 0 0 1 11 10v49a37 37 0 0 1-37 37 37 37 0 0 1-38-37v-49a11 11 0 0 1 11-10z"/><path d="M449 289a107 107 0 0 0 75 1v-10h-75z" opacity=".1"/><circle cx="486.8" cy="187.7" r="106.8" fill="#fda57d"/><use xlink:href="#d" opacity=".1"/><g fill="#72351c"><use xlink:href="#d" y="-1.3"/><path d="M410 83a62 62 0 0 1 16-25c21-21 55-25 73-49 4 7 1 17-7 20 17 0 37-2 46-16 5 12 3 25-5 34 15 0 31 11 32 26 1 10-5 19-14 25s-18 8-28 10c-28 7-131 33-113-25zm184 106h-3l-55 49c-53-25-92 0-92 0l-58-47h-6a107 107 0 0 0 214-2zm-107 67c-21 0-38-4-38-9s17-9 38-9 37 4 37 9-17 9-37 9z"/></g><g fill="#fda57d"><ellipse cx="380" cy="187.6" rx="9.9" ry="18.6"/><ellipse cx="593.5" cy="187.6" rx="9.9" ry="18.6"/></g><rect width="413.1" height="237.9" x="279.2" y="377.7" fill="url(#e)" rx="14.5" opacity=".7"/><rect width="398.2" height="233.5" x="286.6" y="382.1" fill="#535461" rx="26.8"/><circle cx="485.7" cy="498.8" r="13.5" fill="#fff"/><path fill="#e0e0e0" d="M41 649h889v13H41z"/><path opacity=".1" d="M41 649h889v4H41zm838-117v69c0 8-6 15-14 15h7c8 0 15-7 15-15v-69z"/><path fill="#eee" d="m833 476-4 2c-1 1 1 3 3 5l8 7c2 3 3 8 1 11-3 4-10 5-11 10 0 3 2 5 5 7 7 4 15 5 20 11 2-4 7-7 11-8l14-1 4-2c1-3-2-6-1-9 1-2 4-2 6-2 3-2 4-6 3-9s-3-7-6-9c-8-6-17-9-26-12-4-1-9-3-14-3l-13 2z"/></svg>